<?xml version="1.0" standalone="no"?>
<!DOCTYPE svg PUBLIC "-//W3C//DTD SVG 20010904//EN"
 "http://www.w3.org/TR/2001/REC-SVG-20010904/DTD/svg10.dtd">
<svg version="1.0" xmlns="http://www.w3.org/2000/svg"
 width="320.000000pt" height="320.000000pt" viewBox="0 0 320.000000 320.000000"
 preserveAspectRatio="xMidYMid meet">
<metadata>
Created by potrace 1.14, written by Peter Selinger 2001-2017
</metadata>
<g transform="translate(0.000000,320.000000) scale(0.100000,-0.100000)"
fill="#000000" stroke="none">
<path d="M697 3184 c4 -12 3 -15 -5 -10 -7 4 -12 2 -12 -4 0 -6 -4 -9 -9 -6
-5 4 -11 2 -13 -3 -1 -6 -38 -11 -80 -12 -49 -1 -78 -6 -78 -13 0 -6 -4 -5 -9
3 -6 9 -11 10 -15 2 -4 -7 -40 -11 -91 -11 -57 0 -85 -4 -88 -12 -4 -10 -6
-10 -6 0 -1 10 -4 10 -15 0 -8 -7 -11 -17 -8 -23 3 -5 -1 -4 -10 3 -13 10 -18
10 -24 1 -4 -8 -3 -9 4 -5 7 4 12 3 12 -3 0 -5 -5 -13 -10 -16 -16 -10 -13
-475 3 -475 7 0 6 -4 -3 -10 -10 -6 -11 -10 -2 -10 7 0 12 -14 12 -34 0 -19 5
-38 11 -42 8 -4 7 -9 -2 -15 -8 -5 -9 -9 -3 -9 7 0 12 -24 13 -62 1 -33 7 -68
14 -76 10 -13 9 -14 -1 -8 -8 5 -5 -9 8 -34 12 -23 17 -39 11 -35 -6 3 -11 1
-11 -4 0 -6 7 -11 15 -11 9 0 12 -6 9 -15 -4 -9 0 -15 7 -15 11 0 11 -3 -1
-10 -10 -6 -11 -10 -2 -10 8 0 12 -18 12 -55 0 -30 4 -55 9 -55 5 0 9 -20 9
-45 0 -25 6 -53 14 -62 7 -9 8 -14 2 -10 -6 3 -11 0 -11 -8 0 -8 4 -12 8 -10
4 3 9 -2 13 -10 3 -8 2 -15 -2 -15 -4 0 -7 -13 -7 -30 0 -20 5 -30 15 -30 13
0 13 -1 0 -10 -8 -5 -10 -10 -4 -10 10 0 14 -45 15 -152 0 -10 6 -18 12 -18 7
0 6 -4 -3 -10 -10 -6 -11 -10 -2 -10 8 0 12 -21 12 -71 0 -44 4 -68 10 -64 14
9 13 -8 -2 -23 -9 -9 -9 -12 0 -12 7 0 12 -16 12 -40 0 -25 5 -40 13 -40 8 0
7 -4 -3 -10 -10 -6 -11 -10 -2 -10 6 0 12 -5 12 -11 0 -5 -6 -7 -12 -3 -10 6
-10 4 -1 -7 8 -7 13 -39 13 -74 0 -34 5 -66 12 -73 9 -9 9 -12 -2 -12 -11 0
-11 -3 -2 -12 7 -7 12 -31 12 -55 0 -28 4 -43 13 -43 9 0 8 -3 -2 -9 -8 -5 -9
-10 -3 -12 6 -2 12 -32 13 -66 1 -37 7 -63 13 -63 6 0 4 -5 -4 -10 -13 -8 -13
-10 2 -10 11 0 15 -6 11 -20 -3 -11 1 -28 8 -37 10 -12 10 -14 2 -9 -7 4 -13
2 -13 -3 0 -6 6 -11 13 -11 8 0 7 -4 -3 -10 -10 -6 -11 -10 -2 -10 6 0 12 -12
12 -28 0 -15 5 -33 12 -40 9 -9 9 -12 -1 -12 -10 0 -10 -4 -3 -12 6 -7 12 -36
14 -65 2 -29 7 -55 11 -59 4 -4 7 -25 7 -46 0 -21 5 -38 11 -38 5 0 7 -5 4
-10 -3 -6 -1 -10 6 -10 10 0 10 -3 1 -12 -9 -9 -7 -15 6 -25 9 -8 11 -12 5 -8
-7 3 -13 2 -13 -4 0 -5 6 -12 13 -14 9 -4 9 -6 -1 -6 -8 -1 -6 -9 8 -23 12
-13 16 -24 11 -26 -11 -4 6 -41 24 -54 6 -5 4 -8 -5 -8 -9 0 -7 -5 8 -16 18
-13 21 -19 11 -30 -9 -11 -8 -14 7 -14 11 0 15 -4 9 -8 -17 -12 -16 -32 2 -32
15 0 16 -2 3 -10 -11 -7 -11 -10 -2 -10 7 0 11 -4 8 -9 -3 -5 1 -12 10 -15 9
-4 14 -13 10 -21 -5 -15 5 -19 34 -15 12 1 13 -1 3 -11 -15 -15 -17 -33 -3
-24 6 4 10 -8 10 -29 l0 -36 56 0 c61 0 99 -14 87 -33 -4 -7 0 -7 10 2 15 12
17 11 17 -3 0 -18 8 -20 30 -6 9 6 20 5 29 -3 8 -7 12 -8 9 -2 -5 9 15 36 27
35 17 -1 18 1 5 10 -16 10 -17 10 26 14 6 1 20 8 30 16 12 10 15 11 10 2 -7
-11 -4 -11 13 0 12 7 21 17 21 21 0 5 7 7 15 3 8 -3 15 -1 15 5 0 6 6 9 14 6
8 -3 20 2 28 11 12 15 11 16 -4 3 -10 -7 -18 -9 -18 -3 0 14 16 18 80 21 30 2
58 7 61 13 4 6 9 5 12 -3 4 -11 6 -11 6 -1 1 7 5 11 10 7 5 -3 13 0 17 6 4 8
3 9 -4 5 -7 -4 -12 -2 -12 3 0 6 7 11 14 11 8 0 28 12 43 27 15 14 22 23 16
19 -7 -4 -13 -3 -13 2 0 6 12 13 28 17 15 4 21 10 14 12 -8 3 -10 9 -4 16 5 7
12 24 16 40 3 15 12 27 18 27 9 0 9 -3 0 -12 -7 -7 -12 -16 -12 -22 0 -5 6 -1
14 9 8 11 12 25 9 32 -3 8 3 13 13 14 11 0 14 3 7 5 -15 6 4 54 21 54 6 0 4 5
-4 10 -13 9 -13 10 0 10 13 0 13 1 0 10 -12 8 -12 10 -1 10 8 0 11 3 8 7 -4 3
1 15 10 25 15 17 15 20 3 28 -11 7 -12 10 -2 10 7 0 11 4 7 9 -3 5 -1 13 5 16
8 5 8 11 0 20 -8 9 -8 15 0 20 6 3 8 11 5 16 -4 5 1 9 10 9 8 0 18 -7 21 -15
4 -8 11 -12 18 -8 7 4 6 1 -2 -9 -10 -12 -10 -17 1 -27 8 -6 17 -8 20 -4 4 3
7 1 7 -5 0 -6 -5 -14 -11 -18 -7 -4 -2 -11 13 -18 13 -7 22 -19 20 -29 -2 -10
4 -20 12 -23 9 -3 13 -10 10 -15 -3 -5 0 -9 5 -9 6 0 11 -9 11 -20 0 -11 6
-20 14 -20 8 0 18 -5 22 -12 5 -8 1 -9 -12 -5 -19 7 -19 7 0 -8 12 -9 19 -27
19 -45 0 -20 3 -26 9 -18 7 12 9 11 12 -11 0 -5 5 -13 10 -18 5 -5 6 -3 2 5
-4 6 -3 12 2 12 17 0 21 -13 11 -33 -7 -12 -7 -17 -1 -13 12 7 25 -22 15 -36
-3 -7 -1 -8 5 -4 7 4 12 2 12 -4 0 -6 5 -8 12 -4 7 4 8 3 4 -5 -5 -7 3 -20 18
-32 14 -11 26 -27 26 -35 0 -8 7 -14 15 -14 8 0 15 -5 15 -11 0 -5 3 -8 8 -6
4 3 32 1 62 -4 30 -5 60 -10 65 -11 6 -1 12 -11 13 -22 0 -11 6 -22 12 -24 5
-2 10 -10 10 -18 0 -9 5 -12 10 -9 6 3 10 15 10 26 0 12 7 19 20 20 33 2 38 4
47 13 5 5 2 6 -6 1 -10 -6 -12 -4 -7 4 6 9 11 9 22 0 12 -10 15 -10 12 2 -2
10 8 15 37 16 68 3 85 7 85 18 0 5 5 3 10 -5 5 -8 10 -10 10 -4 0 6 6 11 13
11 22 1 42 8 49 18 5 6 8 5 8 -4 0 -10 3 -11 13 -3 7 6 32 12 57 15 24 2 46 9
48 15 2 7 7 10 11 8 4 -3 13 -1 21 5 10 6 11 9 3 9 -7 0 -13 4 -13 10 0 5 6 7
14 4 8 -3 17 0 22 7 5 8 3 10 -7 5 -8 -4 -3 2 11 13 14 11 19 21 13 21 -7 0
-13 5 -13 11 0 5 3 8 8 6 4 -3 13 1 20 9 8 9 9 14 2 14 -6 0 -4 7 4 16 9 8 14
19 11 24 -3 5 1 11 7 13 10 4 9 6 -1 6 -11 1 -11 4 -1 16 7 8 10 22 6 30 -4
11 -2 14 6 9 8 -5 9 0 5 15 -4 16 -2 21 8 17 7 -2 16 2 19 10 4 10 2 13 -7 8
-9 -6 -9 -5 0 7 13 16 20 169 9 188 -5 7 -1 9 8 5 11 -4 16 0 16 10 0 9 6 16
13 16 8 0 7 3 -3 10 -12 8 -12 10 2 15 10 4 14 14 11 25 -3 11 -2 28 2 37 8
19 12 38 16 91 2 17 6 32 9 32 7 0 9 9 10 77 1 27 6 53 12 60 5 7 7 17 3 23
-3 5 -1 10 5 10 6 0 8 4 5 10 -3 5 0 10 7 10 10 0 9 3 -2 10 -13 8 -13 10 0
15 11 4 15 21 13 73 -1 37 3 72 9 79 12 14 7 65 -7 75 -6 5 -5 8 3 8 6 0 12 7
12 16 0 8 5 12 11 8 8 -4 8 0 0 15 -13 24 -11 52 4 63 6 5 5 12 -3 20 -6 6
-12 17 -12 23 0 5 5 3 10 -5 6 -9 10 -10 10 -3 0 6 -5 15 -11 18 -7 5 -4 14 7
26 17 19 22 43 26 117 2 22 6 31 15 28 18 -7 16 9 -2 24 -17 14 -20 50 -5 50
6 0 16 11 22 25 9 21 8 28 -7 45 -15 16 -15 20 -3 25 10 4 15 26 16 81 1 42 6
83 10 92 9 20 8 40 -3 65 -4 9 -3 23 2 30 5 6 11 30 12 52 1 22 7 43 14 47 9
6 8 8 -3 8 -11 0 -12 2 -3 8 7 4 13 24 15 45 1 20 7 37 13 37 5 0 4 4 -4 9 -9
6 -10 11 -2 15 6 4 11 37 11 77 0 44 4 69 11 69 8 0 8 4 0 14 -8 10 -9 16 -1
21 17 11 13 418 -5 461 -8 19 -14 38 -13 42 1 4 -4 20 -10 35 -7 16 -12 33
-12 38 0 5 -4 9 -10 9 -5 0 -10 6 -10 13 0 24 -53 54 -81 47 -42 -12 -293 -4
-318 9 -23 13 -65 6 -56 -9 3 -4 -7 -11 -20 -14 -30 -8 -42 -34 -55 -120 -5
-33 -11 -72 -14 -86 -3 -14 -8 -53 -10 -88 -3 -34 -7 -66 -10 -71 -3 -4 -6
-57 -8 -117 -1 -60 -5 -111 -9 -114 -4 -3 -9 -42 -10 -88 -1 -45 -5 -82 -9
-82 -4 0 -9 -55 -10 -122 -1 -68 -2 -129 -3 -135 0 -7 -5 -13 -11 -13 -6 0 -4
-5 4 -10 8 -5 10 -10 4 -10 -8 0 -12 -35 -14 -102 -1 -57 -2 -109 -3 -115 0
-7 -4 -13 -8 -13 -4 0 -8 -57 -8 -127 -1 -87 -6 -130 -14 -135 -9 -6 -8 -8 3
-8 9 0 11 -3 5 -8 -6 -4 -12 -27 -14 -52 -2 -25 -6 -49 -10 -55 -4 -5 -9 -46
-10 -90 -2 -44 -7 -87 -11 -96 -5 -8 -7 -24 -6 -35 2 -10 -1 -25 -7 -31 -6 -9
-6 -13 3 -13 9 0 7 -7 -6 -21 -14 -16 -15 -22 -5 -28 9 -6 10 -11 2 -15 -6 -4
-11 -24 -11 -45 0 -20 -5 -42 -12 -49 -9 -9 -9 -12 2 -12 12 -1 11 -4 -3 -14
-12 -9 -14 -16 -7 -21 5 -3 7 -12 3 -18 -4 -7 -6 -24 -4 -39 1 -16 -2 -28 -8
-28 -10 0 -15 14 -12 34 1 5 -4 13 -11 17 -11 7 -11 9 0 9 10 0 10 3 0 14 -7
8 -17 11 -23 8 -5 -2 -4 1 3 9 10 11 8 17 -10 32 -13 10 -18 16 -12 13 6 -3
11 1 11 9 0 8 -4 12 -9 9 -4 -3 -8 0 -8 6 0 6 -5 8 -10 5 -14 -9 -13 8 2 23 9
9 8 12 -6 12 -9 0 -15 4 -12 9 4 5 0 12 -6 14 -10 4 -10 6 1 6 8 1 5 9 -10 22
-13 11 -18 18 -11 14 6 -3 12 -1 12 4 0 6 -5 11 -11 11 -5 0 -7 5 -4 10 3 6
-1 13 -10 16 -13 6 -14 8 -3 15 10 7 10 9 1 9 -7 0 -13 7 -13 15 0 8 -5 15
-11 15 -5 0 -7 5 -4 10 3 6 -2 10 -12 11 -10 0 -13 3 -6 6 9 3 7 11 -7 25 -16
17 -17 24 -7 37 6 8 8 12 2 9 -5 -3 -16 0 -23 8 -10 11 -10 14 0 14 10 0 9 3
-1 9 -8 5 -14 23 -14 40 0 16 -5 29 -11 28 -5 -1 -10 5 -11 13 0 9 -8 14 -20
12 -16 -3 -18 -1 -7 9 14 15 16 33 2 24 -6 -4 -10 12 -10 39 0 30 -4 46 -12
46 -9 0 -8 4 2 10 11 7 11 10 2 10 -7 0 -11 3 -9 8 3 4 -2 14 -11 22 -14 13
-15 12 -9 -2 4 -12 2 -15 -8 -11 -8 3 -13 8 -11 12 2 3 -1 11 -8 16 -11 10
-21 12 -83 17 -17 1 -29 6 -26 11 3 4 -3 7 -13 5 -11 -2 -23 6 -29 19 -9 17
-14 20 -23 11 -9 -9 -12 -9 -12 1 0 9 -9 12 -25 9 -14 -3 -28 -1 -31 4 -3 5
-12 4 -20 -3 -12 -10 -13 -9 -8 5 4 12 0 16 -15 16 -12 0 -21 5 -21 10 0 6
-28 10 -65 10 -36 0 -65 -4 -65 -10 0 -5 -7 -7 -15 -4 -10 4 -13 0 -10 -15 2
-13 -5 -28 -22 -41 -24 -19 -35 -47 -34 -93 0 -11 -5 -15 -12 -10 -7 4 -5 -2
3 -12 9 -11 10 -16 3 -11 -9 4 -14 1 -15 -11 0 -10 -2 -23 -2 -29 -1 -6 -9
-19 -19 -28 -20 -20 -23 -31 -5 -20 7 4 1 -8 -12 -26 -13 -18 -19 -30 -12 -26
8 5 10 2 6 -8 -3 -9 -10 -16 -15 -16 -4 0 -6 -7 -3 -15 4 -9 0 -15 -7 -15 -11
0 -11 -3 1 -10 11 -7 11 -10 2 -10 -7 0 -11 -4 -7 -9 3 -6 -3 -14 -12 -20 -14
-8 -15 -10 -3 -11 12 0 12 -2 2 -9 -8 -4 -13 -11 -13 -15 4 -30 0 -36 -17 -27
-14 7 -18 24 -20 71 -1 34 -7 71 -13 82 -8 15 -8 19 0 14 6 -4 11 -2 11 3 0 6
-6 11 -12 11 -10 0 -12 19 -8 76 4 58 2 78 -8 82 -11 4 -11 6 0 13 10 7 10 9
-2 9 -13 0 -13 1 0 10 13 9 13 10 0 10 -12 0 -14 12 -12 60 2 35 0 60 -6 60
-6 0 -9 16 -8 36 1 20 -3 38 -7 41 -5 3 -3 9 4 14 11 7 9 9 -6 9 -17 0 -17 2
-5 10 9 6 10 10 3 10 -6 0 -11 13 -11 29 1 15 -2 33 -6 40 -4 6 -2 11 4 11 6
0 9 4 6 8 -3 5 -6 27 -7 50 -2 23 -8 42 -13 42 -6 0 -4 5 4 10 13 9 13 10 0
10 -12 0 -15 15 -14 75 1 41 -3 75 -7 75 -5 0 -9 11 -9 25 0 14 -4 25 -8 25
-7 0 -12 35 -15 108 0 6 -5 12 -11 12 -6 0 -4 5 4 10 12 8 12 10 1 10 -8 0
-11 7 -8 20 3 13 0 20 -9 20 -8 0 -14 5 -14 11 0 5 5 7 11 3 8 -4 8 -1 1 13
-6 10 -12 47 -14 82 -1 34 -6 65 -10 67 -5 3 -8 18 -8 33 0 15 -5 32 -12 39
-9 9 -9 12 1 12 10 0 10 4 3 13 -5 6 -12 28 -13 47 -2 19 -8 38 -14 42 -6 5
-4 8 5 8 11 0 12 3 3 8 -6 4 -13 29 -14 55 -2 26 -8 47 -13 47 -6 0 -4 5 4 10
12 8 12 10 -5 10 -17 0 -17 2 -5 10 12 8 12 10 -5 10 -17 0 -17 2 -5 10 10 6
11 10 3 10 -7 0 -13 12 -13 26 0 17 -4 23 -12 18 -9 -5 -9 -2 1 9 13 16 8 22
-14 17 -5 -1 -5 4 2 11 10 10 9 15 -5 26 -9 8 -12 12 -6 9 6 -3 11 1 11 9 0 8
-4 12 -9 9 -4 -3 -8 0 -8 6 0 6 -4 8 -10 5 -5 -3 -10 -1 -10 5 0 7 -12 10 -28
9 -15 -2 -33 0 -39 4 -9 6 -11 3 -6 -9z m2138 -1644 c-3 -5 -12 -10 -18 -10
-7 0 -6 4 3 10 19 12 23 12 15 0z m-1445 -1314 c0 -2 -8 -10 -17 -17 -16 -13
-17 -12 -4 4 13 16 21 21 21 13z"/>
<path d="M1296 1734 c-5 -14 -4 -15 9 -4 17 14 19 20 6 20 -5 0 -12 -7 -15
-16z"/>
<path d="M1940 1346 c0 -2 8 -10 18 -17 15 -13 16 -12 3 4 -13 16 -21 21 -21
13z"/>
<path d="M1836 165 c4 -8 11 -15 16 -15 6 0 5 6 -2 15 -7 8 -14 15 -16 15 -2
0 -1 -7 2 -15z"/>
</g>
</svg>
