<svg xmlns="http://www.w3.org/2000/svg" version="1.0" width="512.000000pt" height="512.000000pt" viewBox="0 0 512.000000 512.000000" preserveAspectRatio="xMidYMid meet">
<metadata>
Created by potrace 1.16, written by Peter Selinger 2001-2019
</metadata>
<g transform="translate(0.000000,512.000000) scale(0.100000,-0.100000)" fill="#000000" stroke="none">
<path d="M87 5025 l-88 -94 3 -53 3 -53 95 95 c52 52 114 119 138 148 l43 52 -53 0 -53 -1 -88 -94z"/>
<path d="M186 4929 l-186 -191 0 -113 c0 -110 1 -115 35 -181 l35 -68 -35 -36 c-19 -20 -35 -46 -35 -59 0 -20 5 -17 44 25 40 45 45 47 63 34 47 -34 322 -260 328 -269 3 -6 -30 -28 -73 -50 -149 -75 -370 -233 -361 -259 3 -8 28 7 64 39 76 65 274 197 342 228 l52 24 53 -44 c120 -99 299 -263 389 -357 84 -86 479 -568 479 -582 0 -3 -40 -30 -88 -60 -48 -29 -139 -90 -202 -133 -238 -164 -306 -233 -420 -423 -76 -127 -119 -226 -155 -349 -47 -164 -55 -249 -54 -562 0 -168 -4 -321 -11 -368 -14 -99 -38 -213 -48 -230 -5 -9 -43 31 -118 123 -62 76 -149 180 -195 233 -72 82 -84 92 -87 73 -4 -26 35 -80 244 -340 68 -85 124 -163 124 -173 0 -11 -21 -61 -46 -112 -45 -89 -47 -92 -63 -72 -9 11 -70 94 -136 184 -114 156 -120 162 -123 131 -3 -27 15 -59 118 -208 l121 -176 -25 -41 c-26 -45 -117 -166 -179 -241 -22 -25 -37 -51 -35 -58 6 -17 183 202 277 342 50 74 87 144 106 195 15 44 38 107 51 140 35 90 51 173 69 345 14 131 15 173 4 272 -37 356 35 669 218 946 63 95 102 129 368 314 221 155 408 269 585 357 172 86 203 98 450 172 113 33 223 72 245 84 22 13 114 99 205 191 163 166 163 166 41 53 -208 -193 -261 -235 -261 -210 0 17 470 444 585 530 123 93 145 107 145 90 0 -21 -86 -304 -117 -383 -14 -38 -34 -76 -43 -85 -10 -9 -59 -38 -109 -66 -186 -102 -401 -282 -647 -543 -237 -250 -303 -339 -488 -660 -49 -84 -90 -151 -92 -150 -1 2 60 128 136 281 170 341 225 469 256 600 13 56 29 115 34 132 8 25 8 27 -4 15 -7 -8 -21 -49 -31 -90 -40 -169 -74 -244 -540 -1195 -89 -180 -182 -347 -254 -455 -40 -60 -218 -246 -227 -238 -2 2 12 62 30 134 38 144 101 324 183 517 85 204 147 362 198 507 63 179 121 292 199 386 36 42 84 113 107 157 50 92 140 181 275 272 46 31 84 58 84 61 0 16 -191 -112 -261 -175 -40 -35 -69 -74 -99 -132 -26 -50 -68 -109 -109 -153 -92 -97 -165 -187 -198 -243 -15 -26 -94 -245 -175 -487 -136 -408 -147 -437 -148 -383 0 74 -27 129 -80 162 -40 25 -40 26 -40 89 0 250 182 664 384 875 39 42 57 65 40 53 -108 -75 -287 -349 -370 -568 -63 -167 -97 -417 -78 -569 l9 -70 5 85 5 84 32 -34 c42 -44 57 -90 50 -149 -4 -25 -38 -163 -77 -306 -39 -143 -84 -325 -101 -405 -16 -79 -35 -148 -42 -152 -77 -47 -137 -117 -273 -318 -147 -218 -177 -254 -258 -304 -77 -48 -120 -89 -155 -148 l-23 -38 41 0 c40 0 43 3 109 87 93 120 137 169 358 399 201 210 230 233 444 359 135 80 414 265 625 414 102 72 193 148 284 236 192 187 258 275 406 540 43 77 87 154 98 170 47 68 152 192 189 224 l40 34 -27 -54 c-15 -30 -56 -99 -90 -154 -80 -128 -77 -122 -119 -243 -49 -140 -45 -151 8 -22 61 149 95 212 199 373 l91 141 121 78 c66 44 147 92 180 108 62 31 285 94 294 84 3 -3 -21 -31 -54 -62 -68 -64 -475 -401 -575 -477 -79 -60 -166 -137 -194 -173 -19 -24 -17 -24 19 6 170 139 292 217 551 357 228 123 258 147 89 71 l-80 -36 40 32 c47 38 133 125 191 193 l40 48 60 -29 c55 -27 66 -29 181 -29 67 0 119 -3 115 -6 -43 -38 -244 -162 -289 -179 -372 -139 -667 -299 -789 -430 -165 -176 -217 -233 -204 -224 8 6 49 37 90 70 126 99 153 119 261 191 146 97 241 151 409 232 275 132 364 152 775 176 149 9 296 20 328 24 31 4 57 6 57 4 0 -9 -118 -197 -168 -267 -106 -147 -271 -300 -518 -478 l-90 -65 -124 78 c-169 109 -239 142 -311 147 -32 2 -71 1 -86 -4 -23 -6 -14 -9 47 -14 84 -8 146 -35 288 -127 135 -87 267 -196 413 -342 186 -187 300 -342 412 -561 33 -63 57 -104 54 -91 -5 20 12 43 102 140 60 64 121 131 137 149 l29 33 52 -89 53 -90 -41 -89 c-86 -186 -219 -539 -219 -582 0 -38 -12 6 -25 93 -27 178 -99 357 -220 543 -83 126 -129 177 -230 252 -140 105 -155 112 -79 36 39 -38 89 -95 112 -125 37 -50 185 -297 283 -473 115 -206 132 -349 64 -531 -14 -36 -25 -69 -25 -71 0 -3 13 -5 29 -5 32 0 23 -22 146 375 20 66 52 158 70 205 44 116 146 340 154 340 3 0 16 -18 29 -40 l22 -40 -45 -132 c-26 -79 -51 -176 -60 -238 -8 -58 -20 -139 -26 -180 -10 -71 -49 -234 -64 -272 -6 -15 -1 -18 34 -18 38 0 41 2 50 38 28 104 33 150 26 232 -14 162 -1 256 66 458 l31 93 58 -89 c32 -48 66 -94 75 -102 9 -8 -15 35 -54 95 -39 60 -71 113 -71 119 0 14 126 252 168 316 20 30 78 97 129 149 52 51 92 95 90 97 -8 8 -162 -143 -208 -205 -28 -36 -80 -125 -117 -198 -37 -73 -70 -133 -73 -133 -3 0 -17 20 -30 44 l-23 44 57 100 c31 56 133 216 226 358 114 170 171 265 171 283 l0 26 -21 -32 c-11 -18 -60 -63 -107 -100 -128 -100 -285 -236 -379 -329 l-83 -82 -63 102 c-35 55 -69 111 -76 123 -11 21 2 36 187 225 244 249 325 336 447 483 91 107 96 116 93 154 l-3 41 -157 -193 c-86 -105 -225 -266 -308 -357 -83 -91 -179 -200 -213 -242 -34 -42 -65 -77 -69 -77 -3 -1 -23 25 -42 56 -20 32 -36 49 -36 40 0 -26 23 -67 122 -215 49 -73 91 -139 94 -147 3 -8 -35 -58 -93 -122 -54 -60 -112 -126 -130 -146 -18 -20 -35 -37 -38 -37 -2 0 -16 24 -31 53 -14 28 -56 103 -92 165 -74 130 -86 174 -66 243 36 120 247 345 639 678 66 57 189 166 273 243 137 128 152 145 152 175 0 18 -2 33 -5 33 -7 0 -352 -272 -520 -409 -161 -132 -416 -378 -505 -490 -37 -45 -85 -113 -106 -148 l-38 -66 -55 64 c-70 81 -201 213 -264 265 l-49 41 139 88 c187 120 274 184 366 274 98 95 147 161 280 378 127 207 338 496 388 532 19 15 111 74 202 131 l167 105 0 38 0 37 -42 -26 c-123 -77 -252 -171 -330 -241 -78 -70 -223 -245 -334 -405 -25 -36 -40 -47 -77 -56 -25 -7 -58 -12 -72 -12 -26 0 -26 1 18 43 24 24 57 66 72 93 92 163 179 260 328 366 111 79 177 132 330 266 l107 95 0 49 0 49 -98 -88 c-53 -49 -174 -155 -269 -236 -94 -81 -174 -151 -178 -157 -3 -5 -55 -39 -116 -76 -61 -36 -109 -68 -107 -70 2 -2 39 15 82 38 l79 41 -56 -66 c-30 -36 -78 -105 -107 -153 -99 -169 -108 -174 -345 -185 -99 -5 -229 -13 -288 -20 -60 -6 -111 -9 -114 -6 -7 8 313 216 539 350 329 196 487 321 728 578 80 85 169 177 198 205 48 45 53 55 50 86 l-3 36 -149 -134 c-82 -74 -151 -134 -154 -134 -8 0 103 116 213 222 55 53 97 99 94 103 -9 9 -174 -149 -279 -267 -94 -106 -149 -150 -340 -278 -69 -45 -145 -99 -170 -119 -26 -21 13 27 92 114 160 176 157 174 271 254 84 59 427 389 427 411 0 17 -11 11 -54 -26 -56 -50 -294 -284 -298 -293 -2 -4 -52 -41 -113 -81 -73 -49 -149 -112 -225 -188 -63 -63 -140 -133 -170 -157 -122 -94 -298 -186 -495 -260 -94 -34 -275 -88 -275 -80 0 5 227 147 330 207 52 30 163 89 245 131 198 102 415 264 485 363 l35 49 -41 -35 c-22 -19 -74 -64 -114 -99 -108 -93 -236 -173 -482 -299 -120 -62 -220 -112 -224 -112 -4 0 35 44 87 97 188 195 309 336 670 780 36 44 87 91 131 122 40 27 100 69 133 94 33 25 61 44 62 43 2 -2 -10 -54 -27 -117 -43 -164 -37 -164 20 0 27 79 56 151 64 160 8 9 69 57 135 106 111 83 134 105 113 105 -5 0 -50 -30 -102 -66 l-93 -66 44 55 c24 30 70 86 102 125 l58 70 -3 94 -3 93 -112 -165 c-97 -141 -123 -173 -184 -220 -120 -92 -234 -196 -300 -272 -55 -64 -77 -81 -188 -141 -241 -131 -337 -203 -560 -420 -113 -109 -214 -203 -224 -209 -11 -5 6 27 41 79 32 48 72 113 87 143 15 30 62 98 105 150 137 169 374 510 354 510 -2 0 -43 -53 -91 -117 -47 -65 -148 -201 -223 -303 -75 -102 -154 -214 -176 -250 -103 -173 -217 -298 -439 -479 -49 -41 -198 -180 -330 -310 -132 -130 -294 -284 -360 -342 -147 -129 -262 -260 -332 -377 -103 -173 -143 -230 -228 -325 -175 -197 -396 -368 -680 -526 -159 -90 -229 -144 -303 -235 -63 -78 -74 -90 -114 -111 l-26 -14 17 57 c40 129 108 223 246 335 124 101 557 497 602 551 15 19 93 108 172 198 310 349 540 554 889 786 67 46 122 85 122 87 0 3 -60 -31 -132 -76 -393 -241 -674 -480 -946 -809 -183 -220 -555 -593 -667 -669 -44 -30 -102 -73 -130 -95 -108 -87 9 25 152 146 324 272 398 349 550 569 44 64 100 143 124 175 98 133 321 342 542 508 60 44 104 82 98 84 -21 7 -118 -46 -206 -113 -232 -175 -400 -346 -583 -594 -130 -175 -222 -285 -342 -411 -100 -104 -103 -103 -22 9 30 42 84 137 120 211 108 222 376 647 606 960 22 30 32 49 23 42 -9 -8 -69 -84 -133 -170 -138 -186 -147 -196 -104 -117 193 353 407 548 950 872 281 168 381 215 491 232 96 15 116 -8 84 -99 -17 -50 -18 -53 -6 -46 13 9 44 133 38 150 -10 27 -103 20 -209 -14 -162 -53 -514 -233 -663 -339 -76 -55 -43 -18 43 47 101 77 184 126 367 219 190 96 460 243 534 290 124 80 218 209 259 359 24 84 46 130 70 143 20 10 131 36 150 34 7 0 11 1 8 4 -3 3 38 30 91 60 200 113 316 203 640 496 l213 192 -41 3 c-23 2 -49 -3 -59 -10 -10 -7 -144 -117 -298 -245 -278 -230 -503 -406 -510 -398 -2 2 26 47 63 99 37 52 66 96 65 98 -1 2 46 100 104 218 58 118 106 221 106 227 0 7 -11 13 -25 13 -21 0 -31 -12 -61 -71 -63 -126 -180 -316 -299 -484 -118 -167 -153 -205 -187 -205 -36 0 -256 -60 -383 -104 -69 -24 -124 -39 -121 -32 3 6 13 38 23 70 17 54 23 62 78 99 33 21 191 103 350 182 160 79 299 151 310 159 11 9 -20 -4 -70 -28 -49 -24 -119 -56 -155 -71 -95 -40 -377 -182 -437 -221 l-51 -33 14 43 c16 47 -20 23 558 366 129 76 166 108 112 98 -14 -3 -26 -1 -26 4 0 6 22 35 50 66 27 30 48 57 46 59 -2 3 -41 -25 -86 -62 -45 -36 -175 -128 -290 -205 -114 -76 -236 -164 -270 -195 -35 -30 -65 -54 -67 -51 -2 2 10 57 26 122 45 177 48 234 18 319 l-25 69 45 51 c37 41 42 51 28 54 -10 1 -22 -5 -28 -14 -54 -97 -297 -315 -706 -632 -220 -171 -269 -210 -361 -287 -52 -43 -125 -108 -162 -144 -37 -36 -70 -63 -74 -60 -3 4 0 40 7 81 9 56 10 90 1 140 -13 82 -2 139 69 361 57 179 86 302 100 426 7 64 15 90 31 107 l21 23 -45 0 c-44 0 -47 -2 -227 -171 -252 -237 -355 -362 -442 -537 l-36 -73 -58 88 c-32 49 -102 148 -156 221 l-98 132 18 53 c24 67 71 168 111 235 l32 52 -40 0 -39 0 -30 -72 c-27 -63 -45 -120 -72 -216 -6 -21 -14 -14 -84 70 -116 139 -194 221 -206 217 -11 -4 37 -72 308 -429 221 -293 371 -506 418 -595 58 -109 54 -87 -8 44 l-51 108 30 64 c36 79 98 181 163 268 63 84 307 348 378 409 l54 46 -7 -50 c-8 -53 -92 -428 -132 -589 -20 -76 -25 -121 -23 -190 1 -49 -2 -126 -6 -170 l-8 -80 -177 -181 c-237 -243 -285 -318 -321 -504 -7 -35 -14 -58 -17 -50 -2 8 -33 88 -68 178 -35 90 -67 181 -70 202 -8 48 10 84 101 211 l64 89 21 -47 c11 -26 30 -80 42 -120 12 -40 23 -72 25 -70 1 2 -8 62 -22 133 -21 106 -35 149 -80 241 -74 155 -174 316 -302 489 -241 326 -294 396 -374 492 l-84 101 -60 1 -60 0 115 -112 c119 -116 200 -210 285 -333 27 -38 90 -126 141 -195 117 -159 183 -263 263 -420 l64 -125 -88 -130 c-49 -71 -90 -129 -93 -128 -2 1 -19 36 -37 78 -41 95 -121 236 -247 436 -53 86 -102 167 -108 180 -9 22 -70 359 -70 389 0 7 -3 11 -6 7 -5 -5 27 -242 43 -317 3 -14 -8 -1 -23 29 -40 74 -171 231 -322 383 -139 140 -207 196 -215 176 -4 -10 -6 -10 -6 -1 -1 7 13 28 30 48 l31 35 -35 0 c-32 0 -49 -15 -221 -191z m317 -1 c49 -51 133 -147 188 -213 131 -158 479 -678 552 -825 63 -127 62 -126 -19 6 -71 114 -216 317 -416 578 -43 56 -152 200 -244 321 -170 225 -192 253 -159 200 114 -182 226 -351 267 -404 28 -37 96 -127 151 -201 55 -74 130 -171 165 -215 68 -83 266 -380 319 -475 16 -30 36 -73 43 -95 7 -22 25 -65 40 -95 46 -92 141 -342 136 -356 -3 -7 -28 -25 -55 -39 l-50 -25 -83 107 c-212 271 -441 555 -504 622 -78 85 -280 260 -522 454 -223 178 -255 218 -256 312 -1 72 40 147 154 277 52 60 106 123 120 139 41 48 70 36 173 -73z m2816 -44 c1 -51 -36 -214 -63 -279 -13 -30 -20 -34 -73 -45 -191 -40 -398 -128 -467 -199 -22 -22 -37 -43 -34 -46 3 -4 32 7 64 23 124 63 421 139 446 114 11 -11 -7 -98 -27 -129 -12 -17 -28 -23 -82 -27 -230 -21 -471 -91 -604 -177 -88 -56 -65 -58 109 -8 188 53 352 90 352 80 0 -11 -151 -145 -360 -321 -262 -219 -355 -306 -444 -409 l-74 -87 -84 -23 c-46 -12 -148 -54 -227 -92 l-144 -69 6 40 c7 52 40 96 125 164 37 30 99 92 137 137 89 105 278 277 423 386 61 47 112 87 112 89 0 9 -171 -112 -255 -179 -44 -36 -152 -138 -240 -228 -135 -138 -172 -170 -232 -201 l-72 -36 13 43 c25 81 91 161 335 406 242 242 341 328 681 589 180 138 475 386 580 487 94 90 98 90 99 -3z m1502 -553 c-34 -47 -139 -138 -228 -197 -46 -30 -85 -54 -89 -54 -15 0 65 86 134 143 83 69 195 148 200 142 3 -2 -5 -17 -17 -34z m-1071 6 c0 -2 -18 -45 -40 -96 -54 -127 -89 -179 -175 -258 -77 -72 -122 -101 -390 -251 -93 -52 -173 -96 -177 -98 -15 -9 16 57 135 291 138 271 124 256 287 316 105 38 360 106 360 96z m-640 -136 c0 -50 -15 -72 -82 -116 -38 -26 -72 -44 -74 -42 -3 2 2 10 11 17 8 7 15 17 15 22 0 5 -33 -20 -72 -56 -40 -36 -121 -107 -180 -158 -204 -178 -373 -337 -413 -388 -39 -50 -90 -76 -132 -68 -15 3 229 237 387 372 30 26 138 132 240 237 l185 189 58 0 c31 0 57 -4 57 -9z m1329 -233 c-92 -118 -388 -469 -509 -602 -146 -161 -391 -401 -474 -465 -44 -34 -72 -44 -214 -80 -187 -48 -317 -92 -382 -128 -56 -32 -49 -25 70 69 52 41 131 108 175 148 44 40 164 137 266 216 102 78 231 180 286 226 293 245 393 329 399 341 4 6 -1 5 -12 -4 -10 -9 -50 -37 -89 -63 l-70 -47 75 71 c101 96 192 164 362 271 79 49 145 89 146 89 2 0 -11 -19 -29 -42z m276 -589 c-78 -79 -278 -237 -436 -343 -79 -53 -162 -109 -184 -124 -22 -15 -47 -32 -55 -37 -14 -8 119 133 231 246 28 28 130 97 265 178 120 72 221 131 224 131 2 0 -18 -23 -45 -51z m-456 -216 c-52 -75 -308 -327 -378 -372 -34 -22 -87 -49 -117 -61 -119 -44 -330 -35 -382 17 -14 14 -21 28 -16 33 5 5 70 29 144 54 261 86 523 207 686 316 49 32 90 59 92 60 2 0 -12 -21 -29 -47z m-1875 -990 c-15 -27 -31 -52 -35 -58 -4 -5 -46 -77 -94 -160 -107 -182 -170 -268 -266 -361 -203 -196 -377 -318 -689 -484 -96 -51 -211 -113 -255 -137 l-80 -44 65 61 c120 110 194 167 343 259 81 51 182 118 225 148 226 163 445 390 557 578 27 44 62 95 79 114 33 35 155 131 169 131 4 0 -4 -21 -19 -47z m2618 -625 c-26 -40 -79 -120 -118 -178 -63 -94 -130 -204 -209 -343 l-27 -49 -49 82 -49 82 101 109 c112 120 379 369 396 369 1 0 -19 -33 -45 -72z"/>
<path d="M170 4637 c-1 -16 31 -82 55 -113 14 -18 96 -92 182 -166 237 -199 396 -346 627 -581 222 -225 231 -232 93 -70 -167 195 -424 439 -677 642 -177 142 -229 193 -257 251 -12 25 -22 41 -23 37z"/>
<path d="M795 4290 c11 -37 99 -181 149 -242 57 -71 262 -347 315 -427 50 -73 80 -143 112 -259 12 -45 24 -80 26 -78 11 11 -61 250 -97 321 -42 83 -207 315 -372 521 -52 65 -105 135 -117 154 -18 28 -21 30 -16 10z"/>
<path d="M1402 3250 c0 -14 2 -19 5 -12 2 6 2 18 0 25 -3 6 -5 1 -5 -13z"/>
<path d="M1732 5028 c-96 -146 -184 -357 -181 -433 0 -11 7 7 15 39 20 82 85 200 174 314 41 53 88 114 104 135 l28 37 -39 0 c-40 0 -41 -1 -101 -92z"/>
<path d="M2540 5103 c-6 -10 -35 -57 -63 -104 -29 -47 -75 -121 -104 -164 -86 -130 -151 -365 -158 -575 l-4 -115 9 95 c5 64 18 124 40 185 48 135 183 456 245 580 29 60 52 111 50 113 -2 2 -9 -4 -15 -15z"/>
<path d="M2932 4893 c-140 -140 -249 -257 -281 -302 -28 -41 -51 -78 -51 -83 0 -4 26 12 58 38 31 25 136 107 232 181 160 125 410 358 410 383 0 6 -28 10 -69 10 l-69 0 -230 -227z m119 36 c-41 -39 -109 -98 -150 -131 l-76 -60 59 57 c79 76 227 205 235 205 3 -1 -28 -33 -68 -71z"/>
<path d="M3640 5113 c1 -5 14 -33 31 -63 33 -60 33 -59 5 18 -11 29 -24 52 -28 52 -4 0 -8 -3 -8 -7z"/>
<path d="M3900 5083 c-25 -21 -93 -78 -151 -128 -58 -51 -131 -109 -162 -131 -31 -21 -57 -42 -57 -46 0 -32 361 187 488 296 l54 46 -33 0 c-23 0 -46 -12 -83 -43 -28 -24 -80 -65 -116 -91 l-65 -48 45 44 c25 24 70 65 100 91 64 55 46 64 -20 10z"/>
<path d="M4135 5070 c-14 -28 -42 -76 -61 -108 l-35 -57 45 49 c57 62 114 166 92 166 -9 0 -27 -23 -41 -50z"/>
<path d="M4501 5055 c-28 -55 -55 -84 -180 -194 -150 -132 -211 -191 -197 -191 4 0 47 36 94 81 48 45 146 125 217 179 122 92 230 190 210 190 -5 0 -20 -10 -33 -22 l-24 -23 6 23 c7 20 4 22 -26 22 -31 0 -36 -5 -67 -65z"/>
<path d="M4844 4942 c-66 -53 -212 -169 -323 -257 -327 -257 -481 -391 -481 -417 0 -11 182 112 275 186 39 31 76 54 82 51 7 -2 12 -1 12 3 -1 4 -1 13 0 21 2 26 148 165 311 296 161 129 260 214 250 214 -3 0 -59 -43 -126 -97z"/>
<path d="M3627 4935 c-64 -33 -147 -88 -147 -97 0 -4 26 9 58 29 31 21 80 50 107 65 62 34 48 37 -18 3z"/>
<path d="M4921 4812 c-107 -68 -244 -161 -305 -207 -61 -45 -113 -81 -114 -80 -2 2 5 16 16 32 10 15 27 40 36 55 9 15 58 59 109 97 136 103 225 178 238 203 9 17 0 13 -42 -17 -71 -52 -268 -200 -296 -222 -12 -10 -36 -52 -54 -93 -40 -92 -66 -128 -195 -269 -56 -61 -145 -173 -199 -249 -55 -75 -115 -159 -134 -187 -20 -27 -30 -46 -24 -42 7 4 64 79 127 165 149 206 162 222 263 324 110 113 177 163 479 356 305 195 297 189 292 228 l-3 30 -194 -124z"/>
<path d="M881 4844 c0 -11 3 -14 6 -6 3 7 2 16 -1 19 -3 4 -6 -2 -5 -13z"/>
<path d="M892 4800 c0 -14 2 -19 5 -12 2 6 2 18 0 25 -3 6 -5 1 -5 -13z"/>
<path d="M3480 4698 c-30 -28 -46 -46 -35 -40 19 10 104 92 95 92 -3 -1 -30 -24 -60 -52z"/>
<path d="M5019 4733 c-13 -16 -12 -17 4 -4 9 7 17 15 17 17 0 8 -8 3 -21 -13z"/>
<path d="M4940 4678 c-176 -134 -424 -359 -549 -499 -147 -164 -141 -159 89 66 197 193 347 330 485 442 58 47 40 40 -25 -9z"/>
<path d="M1542 4540 c0 -19 2 -27 5 -17 2 9 2 25 0 35 -3 9 -5 1 -5 -18z"/>
<path d="M4381 4463 c-10 -26 -10 -27 4 -9 8 11 15 23 15 28 0 15 -7 8 -19 -19z"/>
<path d="M3958 4297 c5 -67 -26 -147 -98 -251 -72 -104 -78 -108 -73 -44 l5 53 -33 -50 c-103 -160 -168 -253 -250 -355 -107 -135 -166 -200 -172 -193 -3 2 -8 -4 -11 -15 -11 -33 -292 -299 -456 -432 -85 -69 -178 -145 -205 -170 -28 -25 -70 -62 -95 -84 l-45 -38 50 27 c89 50 285 176 363 235 114 85 295 275 662 695 62 72 143 162 180 200 81 86 122 145 165 238 41 91 48 127 34 183 -16 62 -26 63 -21 1z"/>
<path d="M33 4223 c-18 -9 -33 -20 -33 -25 0 -14 14 -9 45 17 35 28 32 30 -12 8z"/>
<path d="M4968 4018 c-80 -81 -153 -163 -162 -182 -10 -21 -15 -56 -14 -93 l1 -58 6 64 c6 61 8 65 51 99 25 20 96 86 158 147 102 99 113 114 110 141 -4 28 -9 24 -150 -118z"/>
<path d="M160 4063 c-96 -38 -160 -83 -160 -110 0 -13 2 -23 4 -23 3 0 35 23 72 50 36 28 89 64 118 80 63 37 51 38 -34 3z"/>
<path d="M1720 4005 c0 -5 5 -17 10 -25 5 -8 10 -10 10 -5 0 6 -5 17 -10 25 -5 8 -10 11 -10 5z"/>
<path d="M470 3973 c-143 -51 -268 -125 -402 -238 -63 -53 -68 -59 -68 -97 l0 -40 73 64 c104 93 147 125 287 218 153 102 167 113 110 93z"/>
<path d="M1746 3940 c12 -44 65 -180 73 -185 7 -4 -47 144 -69 190 -9 17 -9 16 -4 -5z"/>
<path d="M3929 3803 c-13 -16 -12 -17 4 -4 16 13 21 21 13 21 -2 0 -10 -8 -17 -17z"/>
<path d="M274 3730 c-2 -55 -23 -83 -157 -204 -75 -70 -117 -115 -117 -128 0 -18 4 -17 37 12 91 78 214 201 233 232 20 33 26 92 12 115 -4 6 -8 -6 -8 -27z"/>
<path d="M785 3622 c-136 -73 -262 -170 -516 -398 -91 -82 -189 -169 -218 -194 -39 -33 -52 -51 -50 -66 3 -18 48 20 259 213 140 129 262 239 272 244 13 7 29 -5 73 -53 93 -100 199 -237 263 -338 59 -94 82 -118 82 -83 -1 76 -175 316 -322 443 l-69 60 80 59 c44 32 106 74 138 92 120 67 126 84 8 21z"/>
<path d="M415 3589 c-190 -109 -415 -272 -415 -300 0 -23 13 -25 30 -4 17 20 365 276 431 317 43 27 56 38 46 38 -2 0 -43 -23 -92 -51z"/>
<path d="M555 3305 c26 -40 113 -194 160 -284 21 -39 40 -69 42 -67 9 9 -96 217 -148 291 -49 72 -96 122 -54 60z"/>
<path d="M4928 2912 c-183 -124 -388 -271 -388 -278 0 -6 29 13 205 135 82 57 201 137 263 178 61 41 112 76 112 78 0 13 -31 -5 -192 -113z"/>
<path d="M244 2880 c-242 -163 -247 -167 -242 -209 l3 -33 94 73 94 73 -97 -127 c-94 -123 -97 -128 -94 -173 l3 -46 87 129 c77 113 145 201 296 381 24 29 42 52 39 52 -2 0 -85 -54 -183 -120z"/>
<path d="M2094 2838 l-19 -23 23 19 c21 18 27 26 19 26 -2 0 -12 -10 -23 -22z"/>
<path d="M5013 2672 c-55 -42 -138 -107 -184 -145 -46 -37 -124 -88 -174 -114 -148 -76 -291 -180 -520 -378 -106 -91 -305 -252 -387 -312 -57 -42 -84 -73 -30 -35 15 11 70 43 122 72 127 70 763 504 925 632 71 55 361 345 354 353 -3 2 -51 -30 -106 -73z"/>
<path d="M513 2531 c-78 -44 -181 -106 -230 -139 -153 -103 -314 -242 -280 -242 2 0 42 30 88 66 46 37 192 138 324 226 309 206 310 207 98 89z"/>
<path d="M665 2563 c-171 -154 -249 -230 -337 -331 -56 -65 -153 -169 -216 -233 -81 -84 -113 -122 -109 -135 6 -27 197 168 306 311 47 63 152 178 243 268 156 153 195 194 113 120z"/>
<path d="M3868 2451 c10 -6 1 -22 -32 -63 -61 -75 -143 -139 -321 -247 -182 -112 -221 -146 -70 -60 254 144 333 202 406 299 27 36 49 67 49 70 0 3 -10 7 -22 7 -15 2 -18 -1 -10 -6z"/>
<path d="M3630 2429 c-374 -78 -737 -267 -1285 -670 -181 -132 -258 -207 -376 -360 -105 -137 -181 -212 -429 -419 -245 -205 -367 -314 -475 -424 -50 -50 -151 -149 -225 -221 -124 -119 -187 -194 -249 -297 -37 -62 -5 -43 44 27 l47 65 46 -51 c26 -29 51 -58 55 -65 4 -8 17 -14 29 -14 16 0 7 14 -47 72 l-68 72 89 85 c49 47 175 153 279 236 366 288 578 471 843 728 97 95 157 145 165 141 6 -4 49 -37 94 -72 l83 -65 -72 -24 c-176 -59 -238 -109 -305 -243 -24 -47 -60 -117 -81 -157 -21 -39 -55 -119 -77 -177 -21 -58 -41 -106 -45 -106 -9 0 -230 -139 -383 -241 -143 -95 -298 -210 -318 -236 -16 -20 -30 -29 122 78 52 36 155 103 229 149 74 46 180 112 236 147 55 34 103 63 106 63 3 0 -1 -23 -8 -52 -8 -29 -14 -60 -14 -69 0 -9 -55 -66 -122 -127 -68 -61 -143 -131 -168 -156 l-44 -46 40 0 c38 0 42 3 92 73 50 70 170 187 191 187 6 0 11 -22 12 -52 0 -29 7 -71 14 -93 l14 -40 -4 40 c-2 22 -7 65 -10 95 -4 30 -2 66 3 81 6 14 47 54 92 90 46 35 92 72 104 82 62 53 -94 -46 -182 -116 -15 -12 -11 13 14 94 13 42 20 49 62 67 26 11 81 29 122 41 87 26 277 123 367 187 35 25 63 47 63 50 0 3 -13 -4 -28 -15 -53 -37 -247 -130 -392 -186 -80 -31 -151 -59 -157 -62 -19 -8 -16 10 17 95 38 98 245 416 297 454 50 38 217 102 246 94 20 -5 193 -140 306 -238 l43 -37 -70 -35 c-86 -43 -232 -132 -330 -199 -112 -77 -207 -185 -287 -327 -41 -72 -170 -339 -157 -325 5 6 42 61 81 124 156 247 313 428 480 554 112 84 278 197 289 197 4 0 65 -48 136 -107 l128 -107 -24 -18 c-170 -133 -362 -271 -483 -347 -139 -87 -215 -139 -189 -130 5 2 91 50 190 107 172 98 286 181 448 326 l66 58 42 -34 c24 -19 79 -60 123 -92 l80 -57 -81 78 c-76 74 -435 378 -648 548 l-99 80 42 8 41 8 88 -78 c304 -275 622 -514 837 -628 154 -82 144 -71 340 -385 38 -61 71 -107 73 -101 5 15 -92 234 -129 292 -46 73 -126 140 -205 173 -103 44 -149 78 -694 511 -201 159 -248 201 -239 210 3 2 36 -3 74 -11 166 -36 184 -37 306 -24 161 18 144 34 -25 25 -123 -6 -139 -5 -264 24 -73 17 -143 36 -155 42 -32 17 -216 153 -217 160 0 4 30 32 68 62 37 31 103 93 147 138 l80 82 -104 -84 c-57 -46 -116 -93 -130 -105 -14 -11 -62 -47 -106 -79 -73 -54 -78 -56 -54 -25 28 37 103 102 403 350 332 273 552 408 951 583 164 72 201 83 320 102 l80 13 -65 0 c-36 0 -108 -8 -160 -19z m-1345 -1111 c50 -45 92 -85 93 -90 3 -7 -40 -12 -85 -11 -18 1 -162 116 -163 130 0 11 46 53 59 53 3 0 47 -37 96 -82z"/>
<path d="M4114 2369 c-9 -15 -397 -270 -574 -378 -160 -98 -176 -109 -167 -117 20 -20 757 468 757 501 0 9 -9 5 -16 -6z"/>
<path d="M621 2064 c0 -11 3 -14 6 -6 3 7 2 16 -1 19 -3 4 -6 -2 -5 -13z"/>
<path d="M615 1804 c0 -272 -36 -541 -115 -855 -43 -173 -97 -270 -261 -469 -53 -63 -128 -159 -168 -212 -60 -82 -72 -103 -69 -130 3 -32 6 -29 113 102 60 74 153 186 207 249 172 200 196 250 248 511 60 298 75 435 74 680 -1 159 -5 241 -15 279 -13 51 -14 44 -14 -155z"/>
<path d="M2832 1935 c-11 -59 -10 -79 3 -128 18 -69 27 -88 110 -222 115 -186 188 -345 158 -345 -16 0 -195 153 -241 206 -24 27 -68 85 -98 129 l-56 80 7 -45 c23 -144 106 -249 289 -364 55 -35 113 -105 186 -223 85 -138 152 -228 251 -338 169 -188 338 -410 462 -609 l48 -76 44 0 c25 0 45 4 45 10 0 19 -200 307 -305 438 -58 73 -147 177 -198 230 -200 210 -330 395 -395 562 -15 41 -74 157 -131 258 -115 207 -150 299 -160 422 l-7 85 -12 -70z"/>
<path d="M5075 1933 c-22 -19 -114 -95 -205 -168 -324 -262 -336 -292 -23 -56 254 192 276 211 271 238 -3 20 -5 19 -43 -14z"/>
<path d="M3165 1820 c5 -8 36 -46 70 -85 92 -105 136 -162 195 -247 43 -64 62 -82 104 -102 80 -38 123 -42 54 -6 -44 23 -76 52 -133 120 -109 131 -108 131 58 -6 182 -149 187 -153 127 -90 -63 67 -247 209 -260 201 -4 -3 -37 30 -73 72 -66 79 -157 170 -142 143z"/>
<path d="M812 1773 c19 -44 20 -59 15 -203 -4 -85 -18 -226 -32 -314 -14 -88 -25 -162 -24 -165 2 -18 32 100 51 199 17 87 22 154 22 275 1 144 -1 165 -21 208 -12 26 -24 47 -27 47 -3 0 5 -21 16 -47z"/>
<path d="M3175 1656 c9 -14 49 -49 88 -80 139 -105 143 -111 217 -281 61 -141 149 -293 314 -540 124 -187 233 -395 281 -539 21 -62 26 -94 23 -148 -2 -37 0 -68 5 -68 4 0 7 13 7 30 0 39 19 39 27 0 4 -24 11 -30 31 -30 24 0 25 1 20 65 -6 73 -42 156 -127 295 -29 47 -90 162 -136 256 -91 187 -164 313 -318 553 -55 86 -121 192 -148 236 -26 44 -67 99 -91 122 -39 38 -193 153 -204 153 -2 0 3 -11 11 -24z"/>
<path d="M23 1598 c-13 -6 -23 -15 -23 -20 0 -10 36 7 45 22 7 12 7 12 -22 -2z"/>
<path d="M3246 1528 c57 -52 151 -177 200 -263 20 -36 39 -64 41 -61 11 11 -88 194 -132 244 -47 52 -130 122 -146 122 -5 0 12 -19 37 -42z"/>
<path d="M1450 1058 c-259 -191 -588 -438 -660 -496 -89 -73 -501 -464 -545 -518 -67 -81 -8 -50 99 54 216 206 719 637 1066 910 182 143 217 171 210 171 -3 0 -79 -54 -170 -121z"/>
<path d="M5013 778 c-135 -220 -244 -420 -288 -531 -20 -49 -34 -91 -33 -93 2 -2 21 36 42 84 52 118 179 345 293 525 52 81 93 155 91 164 -2 10 -47 -55 -105 -149z"/>
<path d="M2870 907 c0 -3 51 -47 113 -100 102 -86 397 -296 397 -283 0 3 -97 79 -216 168 -261 197 -294 220 -294 215z"/>
<path d="M983 562 c-17 -9 -69 -47 -115 -83 -99 -79 -548 -468 -548 -474 0 -3 24 -5 54 -5 l55 0 71 84 c57 67 338 334 495 469 35 31 32 33 -12 9z"/>
<path d="M2886 556 c-4 -16 -35 -57 -69 -91 -87 -86 -252 -216 -279 -220 -13 -2 -75 -17 -139 -34 -124 -33 -211 -66 -250 -93 -14 -10 8 -5 51 13 41 16 110 39 154 50 43 11 102 29 130 40 28 10 52 19 54 19 1 0 -26 -33 -60 -74 -80 -94 -132 -166 -119 -166 10 0 425 399 478 460 36 42 66 97 60 113 -2 7 -7 -1 -11 -17z"/>
<path d="M3326 384 c70 -68 149 -172 228 -298 57 -91 77 -110 29 -27 -82 142 -209 303 -280 356 -25 19 -17 8 23 -31z"/>
<path d="M3247 345 c2 -33 9 -82 14 -108 18 -94 8 -137 -47 -214 -16 -22 -16 -23 12 -23 25 0 32 7 48 43 17 38 56 155 56 167 0 3 -9 -8 -19 -23 l-18 -29 -6 24 c-3 13 -11 59 -17 103 -15 102 -30 139 -23 60z"/>
<path d="M5065 339 c-22 -22 -125 -107 -229 -187 l-189 -147 52 -3 c51 -3 54 -2 119 55 106 92 302 298 302 317 0 15 -19 3 -55 -35z"/>
<path d="M3019 222 c-103 -81 -206 -164 -230 -184 l-44 -37 70 -1 69 0 76 77 c41 43 91 91 110 106 l35 28 -40 -28 -39 -28 45 60 c26 33 68 80 93 103 26 24 46 45 44 47 -2 2 -87 -63 -189 -143z"/>
<path d="M5065 182 c-27 -26 -84 -77 -125 -114 l-75 -67 36 -1 c33 0 47 10 129 88 78 74 91 91 89 114 l-4 27 -50 -47z"/>
</g>
</svg>