<svg xmlns="http://www.w3.org/2000/svg" xmlns:xlink="http://www.w3.org/1999/xlink" viewBox="0 0 1927 897" width="100%" height="100%">
<g fill-rule="evenodd"  stroke="rgb(255, 255, 255)" stroke-width="4px" stroke-linecap="round" stroke-linejoin="round" fill="none">
<path d="M1918.535,888.535 L1797.535,888.535 L1797.535,48.535 L1786.535,48.535 L1512.535,838.535 L1734.535,838.535 L1734.535,888.535 L1402.535,888.535 L1715.535,48.535 L1436.535,48.535 L1149.535,820.535 L1374.535,821.535 L1346.535,888.535 L1044.535,888.535 L1360.535,48.535 L806.535,48.535 L806.535,816.535 L985.535,816.535 L985.535,888.535 L753.535,888.535 L753.535,48.535 L690.535,48.535 L690.535,888.535 L549.535,888.535 L549.535,48.535 L464.535,48.535 L465.535,888.535 L237.535,463.535 L5.535,889.535 L5.535,5.535 L1919.535,5.535 L1918.535,888.535 ZM432.535,48.535 L36.535,48.535 L36.535,727.535 L237.535,360.535 L433.535,726.535 L432.535,48.535 ZM69.535,548.535 L70.535,104.535 L394.535,104.535 L395.535,555.535 L237.535,255.535 L69.535,548.535 Z"/>
<path d="M136.535,174.535 L136.535,260.535 L199.535,174.535 L136.535,174.535 ZM277.535,174.535 L334.535,260.535 L334.535,174.535 L277.535,174.535 Z"/>
<path d="M377.065,888.662 L237.305,616.509 L96.005,887.766 M184.084,850.066 L286.017,850.066 L237.305,726.360 L184.084,850.066 Z"/>
<path d="M365.535,141.535 L366.535,393.535 L237.535,174.535 L106.535,394.535 L106.535,141.535 L365.535,141.535 Z"/>
<path d="M648.535,838.535 L589.535,838.535 L588.535,246.535 L649.535,246.535 L648.535,838.535 Z"/>
<path d="M648.007,204.840 L589.063,204.840 L588.064,48.230 L649.006,48.230 L648.007,204.840 Z"/>
<path d="M507.535,886.978 L507.535,84.535 "/>
<path d="M985.535,776.535 L854.535,776.535 L854.535,86.535 "/>
<path d="M985.535,733.535 L898.535,733.535 L898.535,86.535 "/>
<path d="M987.535,701.535 L941.535,701.535 L941.535,86.535 "/>
<path d="M988.535,662.535 L976.535,662.535 L976.535,85.535 "/>
<path d="M1018.535,86.535 L1313.535,86.535 L1012.535,885.535 "/>
<path d="M1018.535,123.535 L1257.535,123.535 L1007.535,774.535 "/>
<path d="M1018.535,164.535 L1203.535,164.535 L1006.535,663.535 "/>
<path d="M1019.535,200.535 L1146.535,200.535 L1008.535,536.535 "/>
<path d="M1023.535,246.535 L1079.535,246.535 L1009.535,409.535 "/>
<path d="M1022.535,273.535 L1035.535,273.535 L1008.535,327.535 "/>
<path d="M1386.535,790.535 L1193.066,791.004 L1459.535,86.535 "/>
<path d="M1401.535,753.535 L1249.058,754.009 L1506.535,86.535 "/>
<path d="M1418.535,712.535 L1303.051,713.014 L1550.535,86.535 "/>
<path d="M1434.535,677.535 L1360.043,677.019 L1602.535,86.535 "/>
<path d="M1449.535,642.535 L1427.535,642.535 L1652.535,86.535 "/>
<path d="M1773.535,174.535 L1569.535,812.535 L1734.535,812.535 L1735.535,745.535 L1675.535,744.535 L1772.535,439.535 "/>
<path d="M1773.535,319.535 L1618.535,779.535 L1698.535,779.535 "/>
<path d="M1824.535,47.535 L1824.535,870.535 L1897.535,870.535 L1897.535,47.535 "/>
<path d="M1847.535,47.535 L1847.535,844.535 L1873.535,844.535 L1873.535,47.535 "/>
</g>
</svg>